<svg width="200" height="200" viewBox="0 0 200 200" fill="none" xmlns="http://www.w3.org/2000/svg">
<rect width="200" height="200" rx="24" fill="#5865F2"/>
<path d="M141.432 61.5434C133.719 58.0519 125.449 55.4795 116.802 54.0062C116.645 53.9777 116.488 54.0488 116.407 54.1909C115.343 56.0574 114.165 58.4924 113.34 60.4064C104.04 59.0326 94.787 59.0326 85.6774 60.4064C84.8522 58.4499 83.6313 56.0574 82.5629 54.1909C82.4818 54.0535 82.3245 53.9825 82.167 54.0062C73.5249 55.4748 65.2548 58.0472 57.5379 61.5434C57.4711 61.5718 57.4138 61.6192 57.3758 61.6808C41.6892 84.8041 37.392 107.359 39.5 129.634C39.5096 129.743 39.5716 129.848 39.6574 129.914C50.007 137.413 60.0324 141.966 69.8715 144.983C70.029 145.031 70.1958 144.974 70.2961 144.846C72.6235 141.71 74.6982 138.403 76.4771 134.926C76.5821 134.722 76.4819 134.481 76.2673 134.4C72.9765 133.168 69.8429 131.667 66.8286 129.961C66.5902 129.824 66.5711 129.487 66.7905 129.326C67.4248 128.857 68.0593 128.369 68.6649 127.877C68.7745 127.787 68.9272 127.768 69.0561 127.824C88.8585 136.745 110.297 136.745 129.866 127.824C129.995 127.763 130.147 127.782 130.262 127.872C130.867 128.365 131.502 128.857 132.141 129.326C132.36 129.487 132.346 129.824 132.107 129.961C129.093 131.7 125.96 133.168 122.664 134.395C122.449 134.476 122.354 134.722 122.459 134.926C124.276 138.398 126.351 141.705 128.635 144.841C128.731 144.974 128.902 145.031 129.06 144.983C138.947 141.966 148.972 137.413 159.322 129.914C159.412 129.848 159.469 129.748 159.479 129.639C162.002 103.886 155.253 81.5164 141.589 61.6855C141.556 61.6192 141.498 61.5718 141.432 61.5434ZM79.4343 116.071C73.4724 116.071 68.56 110.67 68.56 104.038C68.56 97.4056 73.3771 92.005 79.4343 92.005C85.539 92.005 90.4039 97.453 90.3084 104.038C90.3084 110.67 85.4913 116.071 79.4343 116.071ZM119.64 116.071C113.678 116.071 108.766 110.67 108.766 104.038C108.766 97.4056 113.583 92.005 119.64 92.005C125.745 92.005 130.61 97.453 130.515 104.038C130.515 110.67 125.745 116.071 119.64 116.071Z" fill="white"/>
</svg>
