<svg width="200" height="200" viewBox="0 0 200 200" fill="none" xmlns="http://www.w3.org/2000/svg">
<rect width="200" height="200" rx="24" fill="#00BD13"/>
<path opacity="0.6" d="M49.9091 143.52H68.3636V98.7016L42 78.9288V135.611C42 139.987 45.5459 143.52 49.9091 143.52Z" fill="white"/>
<path opacity="0.6" d="M131.636 143.52H150.091C154.467 143.52 158 139.974 158 135.611V78.9288L131.636 98.7016" fill="white"/>
<path opacity="0.8" d="M131.636 64.4288V98.7015L158 78.9288V68.3834C158 58.6024 146.835 53.0265 139.018 58.8924" fill="white"/>
<path d="M68.3636 98.7016V64.4288L100 88.1561L131.636 64.4288V98.7016L100 122.429" fill="white"/>
<path opacity="0.8" d="M42 68.3834V78.9288L68.3636 98.7015V64.4288L60.9818 58.8924C53.1518 53.0265 42 58.6024 42 68.3834Z" fill="white"/>
</svg>
