<svg width="200" height="200" viewBox="0 0 200 200" fill="none" xmlns="http://www.w3.org/2000/svg">
<rect width="200" height="200" rx="24" fill="#E96089"/>
<path d="M71.2286 63C91.7894 63 108.456 79.5664 108.456 100.001C108.456 120.435 91.7882 137 71.2286 137C50.669 137 34 120.435 34 100.001C34 79.5664 50.6677 63 71.2286 63ZM130.68 65.1674C140.96 65.1674 149.294 80.7612 149.294 100.001H149.296C149.296 119.235 140.962 134.834 130.681 134.834C120.401 134.834 112.067 119.235 112.067 100.001C112.067 80.7662 120.4 65.1674 130.68 65.1674ZM159.453 68.7955C163.068 68.7955 166 82.7663 166 100.001C166 117.23 163.069 131.206 159.453 131.206C155.837 131.206 152.908 117.234 152.908 100.001C152.908 82.7675 155.838 68.7955 159.453 68.7955Z" fill="white"/>
</svg>
