<svg width="200" height="200" viewBox="0 0 200 200" fill="none" xmlns="http://www.w3.org/2000/svg">
<rect width="200" height="200" rx="24" fill="#FF4500"/>
<path d="M166 101.439C166 93.4516 159.496 87.1083 151.57 87.1083C147.668 87.1083 144.118 88.6345 141.516 91.1022C131.582 84.0538 117.979 79.4731 102.839 78.8863L109.462 48.109L130.989 52.6897C131.227 58.0937 135.72 62.4401 141.28 62.4401C146.958 62.4401 151.57 57.8594 151.57 52.2189C151.57 46.5807 146.958 42 141.28 42C137.259 42 133.709 44.3495 132.054 47.7565L108.044 42.7051C107.334 42.5868 106.624 42.7051 106.15 43.0576C105.559 43.4101 105.204 43.9969 105.087 44.702L97.7523 79.0023C82.3764 79.4731 68.5373 84.0538 58.4836 91.2204C55.776 88.652 52.1743 87.2212 48.43 87.2265C40.3871 87.2265 34 93.6859 34 101.558C34 107.43 37.5474 112.363 42.5169 114.597C42.2788 116.005 42.1619 117.415 42.1619 118.943C42.1619 141.025 68.0654 159 100.001 159C131.937 159 157.84 141.144 157.84 118.943C157.84 117.533 157.721 116.005 157.485 114.597C162.453 112.363 166 107.312 166 101.439ZM66.8815 111.658C66.8815 106.02 71.4938 101.439 77.1732 101.439C82.8504 101.439 87.4627 106.02 87.4627 111.658C87.4627 117.297 82.8504 121.879 77.1732 121.879C71.4938 121.995 66.8815 117.297 66.8815 111.658ZM124.485 138.794C117.388 145.843 103.903 146.313 100.001 146.313C95.9797 146.313 82.4955 145.724 75.5153 138.794C74.4526 137.737 74.4526 136.092 75.5153 135.035C76.5802 133.979 78.2359 133.979 79.3008 135.035C83.7963 139.499 93.259 141.025 100.001 141.025C106.743 141.025 116.323 139.499 120.699 135.035C121.764 133.979 123.42 133.979 124.485 135.035C125.431 136.092 125.431 137.737 124.485 138.794ZM122.591 121.995C116.914 121.995 112.301 117.415 112.301 111.777C112.301 106.138 116.914 101.558 122.591 101.558C128.27 101.558 132.883 106.138 132.883 111.777C132.883 117.297 128.27 121.995 122.591 121.995Z" fill="white"/>
</svg>
