<svg width="200" height="200" viewBox="0 0 200 200" fill="none" xmlns="http://www.w3.org/2000/svg">
<rect width="200" height="200" rx="24" fill="#FF9900"/>
<path fill-rule="evenodd" clip-rule="evenodd" d="M136 117.808H147V161.808H48V117.808H59V150.808H136V117.808Z" fill="white"/>
<path opacity="0.8" d="M70.9879 114.538L125.013 125.893L127.284 115.093L73.2589 103.733L70.9879 114.538ZM78.1369 88.669L128.183 111.977L132.845 101.968L82.7979 78.66L78.1369 88.669ZM91.9849 64.116L134.413 99.447L141.479 90.962L99.0509 55.632L91.9849 64.116ZM119.372 38L110.512 44.59L143.46 88.89L152.32 82.301L119.372 38ZM70 139.808H125V128.808H70V139.808Z" fill="white"/>
</svg>
