<svg width="200" height="200" viewBox="0 0 200 200" fill="none" xmlns="http://www.w3.org/2000/svg">
<rect width="200" height="200" rx="20" fill="#FF9900"/>
<path fill-rule="evenodd" clip-rule="evenodd" d="M133.684 116.651H143.973V157.808H51.3704V116.651H61.6596V147.519H133.684V116.651Z" fill="white"/>
<path opacity="0.8" d="M72.8729 113.592L123.407 124.214L125.531 114.112L74.9971 103.486L72.8729 113.592ZM79.5599 89.395L126.372 111.197L130.733 101.835L83.9198 80.0327L79.5599 89.395ZM92.5131 66.4285L132.2 99.4765L138.809 91.5398L99.1226 58.4927L92.5131 66.4285ZM118.13 42L109.843 48.1642L140.662 89.6017L148.95 83.4384L118.13 42ZM71.9488 137.23H123.395V126.94H71.9488V137.23Z" fill="white"/>
</svg>
