<svg width="200" height="200" viewBox="0 0 200 200" fill="none" xmlns="http://www.w3.org/2000/svg">
<rect width="200" height="200" rx="24" fill="#1D9BF0"/>
<path d="M147.715 75.3968C147.788 76.4601 147.788 77.5233 147.788 78.5963C147.788 111.292 123.023 149 77.738 149V148.98C64.3608 149 51.2614 145.149 40 137.888C41.9452 138.123 43.9001 138.24 45.8598 138.245C56.9458 138.255 67.7148 134.517 76.4363 127.632C65.9013 127.432 56.663 120.528 53.4357 110.449C57.1261 111.165 60.9287 111.018 64.5509 110.023C53.0652 107.691 44.802 97.5483 44.802 85.7695C44.802 85.6617 44.802 85.5588 44.802 85.4559C48.2243 87.3717 52.0561 88.4349 55.9756 88.5525C45.1578 81.2863 41.8233 66.8224 48.3559 55.5139C60.8556 70.9724 79.298 80.37 99.0957 81.3647C97.1115 72.7706 99.8221 63.765 106.218 57.7237C116.134 48.3555 131.729 48.8356 141.051 58.7967C146.564 57.7041 151.849 55.6707 156.685 52.7897C154.847 58.5174 151.001 63.3828 145.862 66.4745C150.742 65.8963 155.51 64.5832 160 62.5793C156.695 67.5573 152.531 71.8936 147.715 75.3968Z" fill="white"/>
</svg>
